<?xml version="1.0" encoding="utf-8"?>
<!-- Generator: Adobe Illustrator 16.0.0, SVG Export Plug-In . SVG Version: 6.00 Build 0)  -->
<!DOCTYPE svg PUBLIC "-//W3C//DTD SVG 1.1//EN" "http://www.w3.org/Graphics/SVG/1.1/DTD/svg11.dtd">
<svg version="1.1" xmlns="http://www.w3.org/2000/svg" xmlns:xlink="http://www.w3.org/1999/xlink" x="0px" y="0px"
	 width="293.66px" height="48.055px" viewBox="0 0 293.66 48.055" enable-background="new 0 0 293.66 48.055" xml:space="preserve">
<g id="Calque_1">
</g>
<g id="Calque_2">
	<g>
		<linearGradient id="SVGID_1_" gradientUnits="userSpaceOnUse" x1="110.2676" y1="9" x2="131.2676" y2="9">
			<stop  offset="0" style="stop-color:#56D14D"/>
			<stop  offset="1" style="stop-color:#2C452A"/>
		</linearGradient>
		<path fill="url(#SVGID_1_)" stroke="#1D8B43" stroke-miterlimit="10" d="M110.268,18V0h15.012c1.125,0,2.031,0.092,2.719,0.275
			s1.217,0.453,1.588,0.809s0.619,0.799,0.744,1.33s0.188,1.141,0.188,1.828c0,0.5-0.043,0.941-0.129,1.324s-0.199,0.715-0.34,0.996
			s-0.301,0.518-0.48,0.709s-0.363,0.35-0.551,0.475c-0.438,0.297-0.938,0.465-1.5,0.504c0.703,0.039,1.328,0.211,1.875,0.516
			c0.234,0.133,0.463,0.299,0.686,0.498s0.422,0.445,0.598,0.738s0.318,0.637,0.428,1.031s0.164,0.85,0.164,1.365
			c0,0.625-0.029,1.197-0.088,1.717s-0.178,0.986-0.357,1.4s-0.438,0.777-0.773,1.09s-0.783,0.572-1.342,0.779
			s-1.242,0.361-2.051,0.463S124.881,18,123.756,18H110.268z M123.006,7.5c0.766,0,1.426-0.016,1.98-0.047s1.027-0.09,1.418-0.176
			s0.707-0.205,0.949-0.357s0.432-0.35,0.568-0.592s0.229-0.533,0.275-0.873s0.07-0.744,0.07-1.213c0-0.5-0.055-0.906-0.164-1.219
			s-0.305-0.553-0.586-0.721s-0.662-0.281-1.143-0.34s-1.096-0.088-1.846-0.088h-12.012V7.5H123.006z M123.006,16.125
			c0.875,0,1.633-0.014,2.273-0.041s1.184-0.086,1.629-0.176s0.805-0.219,1.078-0.387s0.486-0.391,0.639-0.668
			s0.256-0.615,0.311-1.014s0.082-0.879,0.082-1.441c0-0.438-0.027-0.818-0.082-1.143s-0.158-0.598-0.311-0.82
			s-0.365-0.402-0.639-0.539s-0.633-0.244-1.078-0.322s-0.988-0.131-1.629-0.158s-1.398-0.041-2.273-0.041h-10.488v6.75H123.006z"/>
		<linearGradient id="SVGID_2_" gradientUnits="userSpaceOnUse" x1="133.8921" y1="11.1914" x2="150.3921" y2="11.1914">
			<stop  offset="0" style="stop-color:#56D14D"/>
			<stop  offset="1" style="stop-color:#2C452A"/>
		</linearGradient>
		<path fill="url(#SVGID_2_)" stroke="#1D8B43" stroke-miterlimit="10" d="M133.892,11.099c0-1.371,0.148-2.506,0.445-3.405
			s0.773-1.612,1.43-2.139s1.508-0.897,2.555-1.11c1.047-0.213,2.32-0.32,3.82-0.32s2.773,0.106,3.82,0.32
			c1.047,0.213,1.898,0.583,2.555,1.11s1.133,1.24,1.43,2.139s0.445,2.034,0.445,3.405c0,1.395-0.148,2.552-0.445,3.474
			s-0.773,1.654-1.43,2.197s-1.508,0.928-2.555,1.151c-1.047,0.225-2.32,0.337-3.82,0.337s-2.773-0.112-3.82-0.337
			c-1.047-0.224-1.898-0.608-2.555-1.151s-1.133-1.275-1.43-2.197S133.892,12.493,133.892,11.099z M136.142,11.099
			c0,0.742,0.027,1.387,0.082,1.936c0.055,0.548,0.158,1.02,0.311,1.413c0.152,0.395,0.365,0.715,0.639,0.962
			s0.633,0.444,1.078,0.591c0.445,0.147,0.986,0.248,1.623,0.302s1.393,0.081,2.268,0.081c0.75,0,1.42-0.018,2.01-0.053
			c0.59-0.034,1.105-0.113,1.547-0.236c0.441-0.124,0.818-0.3,1.131-0.527c0.313-0.229,0.564-0.539,0.756-0.934
			c0.191-0.394,0.332-0.879,0.422-1.454s0.135-1.269,0.135-2.08c0-0.796-0.045-1.474-0.135-2.034s-0.23-1.029-0.422-1.408
			s-0.443-0.678-0.756-0.898s-0.689-0.386-1.131-0.499s-0.957-0.184-1.547-0.214S142.892,6,142.142,6s-1.42,0.016-2.01,0.046
			s-1.105,0.102-1.547,0.214s-0.818,0.278-1.131,0.499s-0.564,0.52-0.756,0.898s-0.332,0.848-0.422,1.408
			S136.142,10.303,136.142,11.099z"/>
		<linearGradient id="SVGID_3_" gradientUnits="userSpaceOnUse" x1="153.0171" y1="11.0625" x2="168.7788" y2="11.0625">
			<stop  offset="0" style="stop-color:#56D14D"/>
			<stop  offset="1" style="stop-color:#2C452A"/>
		</linearGradient>
		<path fill="url(#SVGID_3_)" stroke="#1D8B43" stroke-miterlimit="10" d="M166.517,18v-7.5c0-0.836-0.063-1.541-0.188-2.115
			s-0.375-1.037-0.75-1.389s-0.906-0.605-1.594-0.762S162.392,6,161.267,6c-1.219,0-2.217,0.09-2.994,0.27s-1.389,0.434-1.834,0.762
			s-0.752,0.723-0.92,1.184s-0.252,0.973-0.252,1.535V18h-2.25V4.5h2.25v2.25c0.164-0.383,0.398-0.713,0.703-0.99
			s0.648-0.514,1.031-0.709s0.797-0.354,1.242-0.475s0.891-0.215,1.336-0.281s0.877-0.111,1.295-0.135s0.799-0.035,1.143-0.035
			c1,0,1.861,0.063,2.584,0.188s1.336,0.309,1.84,0.551s0.908,0.543,1.213,0.902s0.541,0.775,0.709,1.248s0.279,1,0.334,1.582
			s0.082,1.217,0.082,1.904l-0.012,7.5H166.517z"/>
		<linearGradient id="SVGID_4_" gradientUnits="userSpaceOnUse" x1="171.7788" y1="11.1328" x2="187.5288" y2="11.1328">
			<stop  offset="0" style="stop-color:#56D14D"/>
			<stop  offset="1" style="stop-color:#2C452A"/>
		</linearGradient>
		<path fill="url(#SVGID_4_)" stroke="#1D8B43" stroke-miterlimit="10" d="M176.853,11.801c-0.805-0.031-1.498-0.096-2.08-0.193
			s-1.066-0.236-1.453-0.416s-0.693-0.42-0.92-0.721s-0.387-0.672-0.48-1.113s-0.141-0.92-0.141-1.436
			c0-0.703,0.148-1.295,0.445-1.775s0.773-0.871,1.43-1.172s1.508-0.518,2.555-0.65s2.32-0.199,3.82-0.199
			c1.484,0,2.709,0.078,3.674,0.234s1.73,0.396,2.297,0.721s0.963,0.732,1.189,1.225s0.34,1.078,0.34,1.758h-2.25
			c0-0.422-0.08-0.766-0.24-1.031s-0.439-0.475-0.838-0.627s-0.936-0.258-1.611-0.316S181.06,6,180.029,6
			c-1.125,0-2.07,0.016-2.836,0.047s-1.383,0.109-1.852,0.234s-0.805,0.316-1.008,0.574s-0.305,0.613-0.305,1.066
			c0,0.266,0.018,0.525,0.053,0.779s0.115,0.463,0.24,0.627s0.309,0.289,0.551,0.375s0.572,0.15,0.99,0.193s0.936,0.066,1.553,0.07
			s1.363,0.006,2.238,0.006c1.063,0,1.994,0.023,2.795,0.07s1.494,0.129,2.08,0.246s1.07,0.297,1.453,0.539s0.689,0.506,0.92,0.791
			s0.393,0.621,0.486,1.008s0.141,0.834,0.141,1.342s-0.047,0.963-0.141,1.365s-0.258,0.758-0.492,1.066s-0.553,0.574-0.955,0.797
			s-0.908,0.402-1.518,0.539s-1.338,0.238-2.186,0.305s-1.834,0.1-2.959,0.1c-1.406,0-2.588-0.07-3.545-0.211
			s-1.729-0.365-2.314-0.674s-1.006-0.709-1.26-1.201s-0.381-1.094-0.381-1.805h2.25c0,0.469,0.08,0.85,0.24,1.143
			s0.439,0.521,0.838,0.686s0.936,0.275,1.611,0.334s1.529,0.088,2.561,0.088c0.938,0,1.736-0.021,2.396-0.064
			s1.213-0.111,1.658-0.205s0.797-0.207,1.055-0.34s0.453-0.293,0.586-0.48s0.217-0.396,0.252-0.627s0.053-0.486,0.053-0.768
			c0-0.258-0.018-0.486-0.053-0.686s-0.115-0.398-0.24-0.598s-0.309-0.35-0.551-0.451s-0.572-0.186-0.99-0.252
			s-0.936-0.113-1.553-0.141s-1.363-0.041-2.238-0.041C178.591,11.848,177.658,11.832,176.853,11.801z"/>
		<linearGradient id="SVGID_5_" gradientUnits="userSpaceOnUse" x1="0" y1="38.6504" x2="16.5" y2="38.6504">
			<stop  offset="0" style="stop-color:#56D14D"/>
			<stop  offset="1" style="stop-color:#2C452A"/>
		</linearGradient>
		<path fill="url(#SVGID_5_)" stroke="#1D8B43" stroke-miterlimit="10" d="M16.5,41.246c0,1.313-0.148,2.402-0.445,3.27
			s-0.773,1.568-1.43,2.104s-1.508,0.908-2.555,1.119s-2.32,0.316-3.82,0.316c-1.406,0-2.588-0.063-3.545-0.188
			s-1.729-0.322-2.314-0.592s-1.006-0.617-1.26-1.043S0.75,45.289,0.75,44.68H3c0,0.305,0.08,0.555,0.24,0.75
			s0.439,0.348,0.838,0.457s0.936,0.186,1.611,0.229S7.219,46.18,8.25,46.18c1.125,0,2.07-0.041,2.836-0.123s1.383-0.275,1.852-0.58
			s0.805-0.766,1.008-1.383s0.305-1.441,0.305-2.473c-0.109,0.188-0.283,0.391-0.521,0.609s-0.586,0.422-1.043,0.609
			s-1.045,0.344-1.764,0.469s-1.609,0.188-2.672,0.188c-1.5,0-2.773-0.111-3.82-0.334s-1.898-0.604-2.555-1.143
			s-1.133-1.266-1.43-2.18S0,37.777,0,36.395c0-1.406,0.148-2.57,0.445-3.492s0.773-1.652,1.43-2.191s1.508-0.918,2.555-1.137
			s2.32-0.328,3.82-0.328c1.063,0,1.953,0.055,2.672,0.164s1.307,0.246,1.764,0.41s0.805,0.342,1.043,0.533s0.412,0.365,0.521,0.521
			v-1.254h2.25V41.246z M8.25,31.121c-0.875,0-1.631,0.027-2.268,0.082s-1.178,0.152-1.623,0.293s-0.807,0.336-1.084,0.586
			s-0.492,0.57-0.645,0.961s-0.254,0.861-0.305,1.412S2.25,35.652,2.25,36.395c0,0.734,0.025,1.373,0.076,1.916
			s0.152,1.008,0.305,1.395s0.367,0.705,0.645,0.955s0.639,0.445,1.084,0.586s0.986,0.238,1.623,0.293s1.393,0.082,2.268,0.082
			c0.75,0,1.418-0.018,2.004-0.053s1.102-0.113,1.547-0.234s0.822-0.297,1.131-0.527s0.561-0.539,0.756-0.926
			s0.338-0.867,0.428-1.441s0.135-1.268,0.135-2.08s-0.045-1.508-0.135-2.086s-0.232-1.061-0.428-1.447s-0.447-0.693-0.756-0.92
			s-0.686-0.398-1.131-0.516s-0.961-0.191-1.547-0.223S9,31.121,8.25,31.121z"/>
		<linearGradient id="SVGID_6_" gradientUnits="userSpaceOnUse" x1="19.125" y1="36.3125" x2="34.875" y2="36.3125">
			<stop  offset="0" style="stop-color:#56D14D"/>
			<stop  offset="1" style="stop-color:#2C452A"/>
		</linearGradient>
		<path fill="url(#SVGID_6_)" stroke="#1D8B43" stroke-miterlimit="10" d="M27.375,43.379c-1.5,0-2.773-0.104-3.82-0.311
			S21.656,42.504,21,41.996s-1.133-1.188-1.43-2.039s-0.445-1.922-0.445-3.211c0-1.477,0.148-2.697,0.445-3.662
			s0.773-1.732,1.43-2.303s1.508-0.969,2.555-1.195s2.32-0.34,3.82-0.34c1.07,0,1.998,0.078,2.783,0.234s1.457,0.383,2.016,0.68
			s1.012,0.656,1.359,1.078s0.621,0.865,0.82,1.33s0.336,1.01,0.41,1.635s0.111,1.285,0.111,1.98l-0.188,0.75H21.375
			c0,1.006,0.102,1.83,0.305,2.474s0.539,1.114,1.008,1.411s1.086,0.486,1.852,0.565c0.766,0.08,1.711,0.12,2.836,0.12
			c1.031,0,1.885-0.027,2.561-0.084c0.676-0.055,1.213-0.16,1.611-0.316c0.398-0.154,0.678-0.371,0.838-0.649
			c0.16-0.277,0.24-0.639,0.24-1.083h2.25c0,0.727-0.127,1.346-0.381,1.857s-0.674,0.926-1.26,1.242s-1.357,0.547-2.314,0.691
			S28.781,43.379,27.375,43.379z M27.375,31.121c-0.75,0-1.42,0.016-2.01,0.047s-1.105,0.1-1.547,0.205S23,31.631,22.688,31.83
			s-0.564,0.434-0.756,0.703S21.6,33.182,21.51,33.67s-0.135,1.076-0.135,1.764h11.25c0-0.914-0.098-1.631-0.293-2.15
			S31.828,32.336,31.406,32s-0.965-0.566-1.629-0.691S28.313,31.121,27.375,31.121z"/>
		<linearGradient id="SVGID_7_" gradientUnits="userSpaceOnUse" x1="37.875" y1="36.2539" x2="53.625" y2="36.2539">
			<stop  offset="0" style="stop-color:#56D14D"/>
			<stop  offset="1" style="stop-color:#2C452A"/>
		</linearGradient>
		<path fill="url(#SVGID_7_)" stroke="#1D8B43" stroke-miterlimit="10" d="M42.949,36.922c-0.805-0.031-1.498-0.096-2.08-0.193
			s-1.066-0.236-1.453-0.416s-0.693-0.42-0.92-0.721s-0.387-0.672-0.48-1.113s-0.141-0.92-0.141-1.436
			c0-0.703,0.148-1.295,0.445-1.775s0.773-0.871,1.43-1.172s1.508-0.518,2.555-0.65s2.32-0.199,3.82-0.199
			c1.484,0,2.709,0.078,3.674,0.234s1.73,0.396,2.297,0.721s0.963,0.732,1.189,1.225s0.34,1.078,0.34,1.758h-2.25
			c0-0.422-0.08-0.766-0.24-1.031s-0.439-0.475-0.838-0.627s-0.936-0.258-1.611-0.316s-1.529-0.088-2.561-0.088
			c-1.125,0-2.07,0.016-2.836,0.047s-1.383,0.109-1.852,0.234s-0.805,0.316-1.008,0.574s-0.305,0.613-0.305,1.066
			c0,0.266,0.018,0.525,0.053,0.779s0.115,0.463,0.24,0.627s0.309,0.289,0.551,0.375s0.572,0.15,0.99,0.193s0.936,0.066,1.553,0.07
			s1.363,0.006,2.238,0.006c1.063,0,1.994,0.023,2.795,0.07s1.494,0.129,2.08,0.246s1.07,0.297,1.453,0.539s0.689,0.506,0.92,0.791
			s0.393,0.621,0.486,1.008s0.141,0.834,0.141,1.342s-0.047,0.963-0.141,1.365s-0.258,0.758-0.492,1.066s-0.553,0.574-0.955,0.797
			s-0.908,0.402-1.518,0.539s-1.338,0.238-2.186,0.305s-1.834,0.1-2.959,0.1c-1.406,0-2.588-0.07-3.545-0.211
			s-1.729-0.365-2.314-0.674s-1.006-0.709-1.26-1.201s-0.381-1.094-0.381-1.805h2.25c0,0.469,0.08,0.85,0.24,1.143
			s0.439,0.521,0.838,0.686s0.936,0.275,1.611,0.334s1.529,0.088,2.561,0.088c0.938,0,1.736-0.021,2.396-0.064
			s1.213-0.111,1.658-0.205s0.797-0.207,1.055-0.34s0.453-0.293,0.586-0.48s0.217-0.396,0.252-0.627s0.053-0.486,0.053-0.768
			c0-0.258-0.018-0.486-0.053-0.686s-0.115-0.398-0.24-0.598s-0.309-0.35-0.551-0.451s-0.572-0.186-0.99-0.252
			s-0.936-0.113-1.553-0.141s-1.363-0.041-2.238-0.041C44.688,36.969,43.754,36.953,42.949,36.922z"/>
		<linearGradient id="SVGID_8_" gradientUnits="userSpaceOnUse" x1="55.875" y1="34.5371" x2="69.75" y2="34.5371">
			<stop  offset="0" style="stop-color:#56D14D"/>
			<stop  offset="1" style="stop-color:#2C452A"/>
		</linearGradient>
		<path fill="url(#SVGID_8_)" stroke="#1D8B43" stroke-miterlimit="10" d="M69.75,37.121c0,1.148-0.094,2.107-0.281,2.877
			s-0.502,1.385-0.943,1.846s-1.021,0.789-1.74,0.984s-1.605,0.293-2.66,0.293c-1.023,0-1.883-0.078-2.578-0.234
			c-0.695-0.155-1.258-0.42-1.688-0.795c-0.43-0.374-0.738-0.873-0.926-1.497s-0.281-1.403-0.281-2.339v-6.76h-2.777v-1.875h2.777
			v-3.668h2.25v3.668h8.473v1.875h-8.473v6.758c0,0.748,0.057,1.324,0.17,1.729s0.295,0.702,0.545,0.889s0.58,0.296,0.99,0.327
			s0.912,0.047,1.506,0.047c0.469,0,0.889-0.008,1.26-0.023s0.695-0.064,0.973-0.146s0.514-0.207,0.709-0.375
			s0.354-0.404,0.475-0.709s0.209-0.689,0.264-1.154s0.082-1.037,0.082-1.717H69.75z"/>
		<linearGradient id="SVGID_9_" gradientUnits="userSpaceOnUse" x1="71.6245" y1="36.3125" x2="87.3745" y2="36.3125">
			<stop  offset="0" style="stop-color:#56D14D"/>
			<stop  offset="1" style="stop-color:#2C452A"/>
		</linearGradient>
		<path fill="url(#SVGID_9_)" stroke="#1D8B43" stroke-miterlimit="10" d="M79.875,43.379c-1.5,0-2.773-0.104-3.82-0.311
			s-1.898-0.564-2.555-1.072s-1.133-1.188-1.43-2.039s-0.445-1.922-0.445-3.211c0-1.477,0.148-2.697,0.445-3.662
			s0.773-1.732,1.43-2.303s1.508-0.969,2.555-1.195s2.32-0.34,3.82-0.34c1.07,0,1.998,0.078,2.783,0.234s1.457,0.383,2.016,0.68
			s1.012,0.656,1.359,1.078s0.621,0.865,0.82,1.33s0.336,1.01,0.41,1.635s0.111,1.285,0.111,1.98l-0.188,0.75H73.875
			c0,1.006,0.102,1.83,0.305,2.474s0.539,1.114,1.008,1.411s1.086,0.486,1.852,0.565c0.766,0.08,1.711,0.12,2.836,0.12
			c1.031,0,1.885-0.027,2.561-0.084c0.676-0.055,1.213-0.16,1.611-0.316c0.398-0.154,0.678-0.371,0.838-0.649
			c0.16-0.277,0.24-0.639,0.24-1.083h2.25c0,0.727-0.127,1.346-0.381,1.857s-0.674,0.926-1.26,1.242s-1.357,0.547-2.314,0.691
			S81.281,43.379,79.875,43.379z M79.875,31.121c-0.75,0-1.42,0.016-2.01,0.047s-1.105,0.1-1.547,0.205s-0.818,0.258-1.131,0.457
			s-0.564,0.434-0.756,0.703s-0.332,0.648-0.422,1.137s-0.135,1.076-0.135,1.764h11.25c0-0.914-0.098-1.631-0.293-2.15
			S84.328,32.336,83.906,32s-0.965-0.566-1.629-0.691S80.812,31.121,79.875,31.121z"/>
		<linearGradient id="SVGID_10_" gradientUnits="userSpaceOnUse" x1="90.3745" y1="36.2539" x2="106.1245" y2="36.2539">
			<stop  offset="0" style="stop-color:#56D14D"/>
			<stop  offset="1" style="stop-color:#2C452A"/>
		</linearGradient>
		<path fill="url(#SVGID_10_)" stroke="#1D8B43" stroke-miterlimit="10" d="M95.449,36.922c-0.805-0.031-1.498-0.096-2.08-0.193
			s-1.066-0.236-1.453-0.416s-0.693-0.42-0.92-0.721s-0.387-0.672-0.48-1.113s-0.141-0.92-0.141-1.436
			c0-0.703,0.148-1.295,0.445-1.775s0.773-0.871,1.43-1.172s1.508-0.518,2.555-0.65s2.32-0.199,3.82-0.199
			c1.484,0,2.709,0.078,3.674,0.234s1.73,0.396,2.297,0.721s0.963,0.732,1.189,1.225s0.34,1.078,0.34,1.758h-2.25
			c0-0.422-0.08-0.766-0.24-1.031s-0.439-0.475-0.838-0.627s-0.936-0.258-1.611-0.316s-1.529-0.088-2.561-0.088
			c-1.125,0-2.07,0.016-2.836,0.047s-1.383,0.109-1.852,0.234s-0.805,0.316-1.008,0.574s-0.305,0.613-0.305,1.066
			c0,0.266,0.018,0.525,0.053,0.779s0.115,0.463,0.24,0.627s0.309,0.289,0.551,0.375s0.572,0.15,0.99,0.193s0.936,0.066,1.553,0.07
			s1.363,0.006,2.238,0.006c1.063,0,1.994,0.023,2.795,0.07s1.494,0.129,2.08,0.246s1.07,0.297,1.453,0.539s0.689,0.506,0.92,0.791
			s0.393,0.621,0.486,1.008s0.141,0.834,0.141,1.342s-0.047,0.963-0.141,1.365s-0.258,0.758-0.492,1.066s-0.553,0.574-0.955,0.797
			s-0.908,0.402-1.518,0.539s-1.338,0.238-2.186,0.305s-1.834,0.1-2.959,0.1c-1.406,0-2.588-0.07-3.545-0.211
			s-1.729-0.365-2.314-0.674s-1.006-0.709-1.26-1.201s-0.381-1.094-0.381-1.805h2.25c0,0.469,0.08,0.85,0.24,1.143
			s0.439,0.521,0.838,0.686s0.936,0.275,1.611,0.334s1.529,0.088,2.561,0.088c0.938,0,1.736-0.021,2.396-0.064
			s1.213-0.111,1.658-0.205s0.797-0.207,1.055-0.34s0.453-0.293,0.586-0.48s0.217-0.396,0.252-0.627s0.053-0.486,0.053-0.768
			c0-0.258-0.018-0.486-0.053-0.686s-0.115-0.398-0.24-0.598s-0.309-0.35-0.551-0.451s-0.572-0.186-0.99-0.252
			s-0.936-0.113-1.553-0.141s-1.363-0.041-2.238-0.041C97.187,36.969,96.253,36.953,95.449,36.922z"/>
		<linearGradient id="SVGID_11_" gradientUnits="userSpaceOnUse" x1="114.375" y1="36.1836" x2="130.1367" y2="36.1836">
			<stop  offset="0" style="stop-color:#56D14D"/>
			<stop  offset="1" style="stop-color:#2C452A"/>
		</linearGradient>
		<path fill="url(#SVGID_11_)" stroke="#1D8B43" stroke-miterlimit="10" d="M127.875,43.121v-7.5c0-0.836-0.063-1.541-0.188-2.115
			s-0.375-1.037-0.75-1.389s-0.906-0.605-1.594-0.762s-1.594-0.234-2.719-0.234c-1.219,0-2.217,0.09-2.994,0.27
			s-1.389,0.434-1.834,0.762s-0.752,0.723-0.92,1.184s-0.252,0.973-0.252,1.535v8.25h-2.25v-13.5h2.25v2.25
			c0.164-0.383,0.398-0.713,0.703-0.99s0.648-0.514,1.031-0.709s0.797-0.354,1.242-0.475s0.891-0.215,1.336-0.281
			s0.877-0.111,1.295-0.135s0.799-0.035,1.143-0.035c1,0,1.861,0.063,2.584,0.188s1.336,0.309,1.84,0.551s0.908,0.543,1.213,0.902
			s0.541,0.775,0.709,1.248s0.279,1,0.334,1.582s0.082,1.217,0.082,1.904l-0.012,7.5H127.875z"/>
		<linearGradient id="SVGID_12_" gradientUnits="userSpaceOnUse" x1="133.1362" y1="36.5" x2="148.8979" y2="36.5">
			<stop  offset="0" style="stop-color:#56D14D"/>
			<stop  offset="1" style="stop-color:#2C452A"/>
		</linearGradient>
		<path fill="url(#SVGID_12_)" stroke="#1D8B43" stroke-miterlimit="10" d="M135.386,29.621v7.427c0,0.827,0.063,1.526,0.188,2.095
			s0.375,1.027,0.75,1.375s0.908,0.6,1.596,0.754c0.688,0.155,1.596,0.232,2.723,0.232c1.219,0,2.219-0.089,2.996-0.267
			c0.779-0.179,1.391-0.43,1.836-0.755c0.445-0.324,0.754-0.715,0.922-1.172c0.168-0.456,0.252-0.963,0.252-1.52v-8.17h2.25v13.5
			h-2.25v-2.359c-0.109,0.252-0.293,0.531-0.553,0.838c-0.258,0.305-0.645,0.589-1.16,0.85c-0.516,0.262-1.184,0.481-2,0.66
			c-0.818,0.18-1.832,0.27-3.045,0.27c-1.006,0-1.871-0.061-2.592-0.182c-0.723-0.121-1.336-0.301-1.838-0.539
			c-0.504-0.238-0.908-0.533-1.213-0.885s-0.539-0.76-0.703-1.225c-0.162-0.465-0.271-0.982-0.326-1.553s-0.082-1.195-0.082-1.875
			l0.012-7.5H135.386z"/>
		<linearGradient id="SVGID_13_" gradientUnits="userSpaceOnUse" x1="151.8979" y1="36.1836" x2="178.1479" y2="36.1836">
			<stop  offset="0" style="stop-color:#56D14D"/>
			<stop  offset="1" style="stop-color:#2C452A"/>
		</linearGradient>
		<path fill="url(#SVGID_13_)" stroke="#1D8B43" stroke-miterlimit="10" d="M166.148,43.121h-2.25v-7.617
			c0-0.813-0.053-1.498-0.158-2.057s-0.32-1.01-0.645-1.354s-0.781-0.592-1.371-0.744s-1.365-0.229-2.326-0.229
			c-1.055,0-1.922,0.088-2.602,0.264s-1.215,0.422-1.605,0.738s-0.662,0.697-0.814,1.143s-0.229,0.941-0.229,1.488v8.367h-2.25
			v-13.5h2.25v2.133c0.008-0.023,0.043-0.102,0.105-0.234s0.174-0.291,0.334-0.475s0.379-0.381,0.656-0.592s0.637-0.406,1.078-0.586
			s0.975-0.328,1.6-0.445s1.367-0.176,2.227-0.176c0.844,0,1.576,0.053,2.197,0.158s1.152,0.262,1.594,0.469
			s0.801,0.465,1.078,0.773s0.498,0.662,0.662,1.061c0.133-0.211,0.34-0.457,0.621-0.738s0.674-0.551,1.178-0.809
			s1.135-0.475,1.893-0.65s1.684-0.264,2.777-0.264c0.898,0,1.67,0.061,2.314,0.182s1.189,0.301,1.635,0.539
			s0.803,0.533,1.072,0.885s0.477,0.76,0.621,1.225s0.24,0.984,0.287,1.559s0.07,1.197,0.07,1.869v7.617h-2.25v-7.617
			c0-0.813-0.053-1.498-0.158-2.057s-0.32-1.01-0.645-1.354s-0.781-0.592-1.371-0.744s-1.365-0.229-2.326-0.229
			c-1.055,0-1.922,0.088-2.602,0.264s-1.215,0.422-1.605,0.738s-0.662,0.697-0.814,1.143s-0.229,0.941-0.229,1.488V43.121z"/>
		<linearGradient id="SVGID_14_" gradientUnits="userSpaceOnUse" x1="181.1479" y1="32.375" x2="196.8979" y2="32.375">
			<stop  offset="0" style="stop-color:#56D14D"/>
			<stop  offset="1" style="stop-color:#2C452A"/>
		</linearGradient>
		<path fill="url(#SVGID_14_)" stroke="#1D8B43" stroke-miterlimit="10" d="M189.398,43.379c-1.5,0-2.773-0.104-3.82-0.311
			s-1.898-0.564-2.555-1.072s-1.133-1.188-1.43-2.039s-0.445-1.922-0.445-3.211c0-1.477,0.148-2.697,0.445-3.662
			s0.773-1.732,1.43-2.303s1.508-0.969,2.555-1.195s2.32-0.34,3.82-0.34c1.07,0,1.998,0.078,2.783,0.234s1.457,0.383,2.016,0.68
			s1.012,0.656,1.359,1.078s0.621,0.865,0.82,1.33s0.336,1.01,0.41,1.635s0.111,1.285,0.111,1.98l-0.188,0.75h-13.313
			c0,1.006,0.102,1.83,0.305,2.474s0.539,1.114,1.008,1.411s1.086,0.486,1.852,0.565c0.766,0.08,1.711,0.12,2.836,0.12
			c1.031,0,1.885-0.027,2.561-0.084c0.676-0.055,1.213-0.16,1.611-0.316c0.398-0.154,0.678-0.371,0.838-0.649
			c0.16-0.277,0.24-0.639,0.24-1.083h2.25c0,0.727-0.127,1.346-0.381,1.857s-0.674,0.926-1.26,1.242s-1.357,0.547-2.314,0.691
			S190.804,43.379,189.398,43.379z M189.398,31.121c-0.75,0-1.42,0.016-2.01,0.047s-1.105,0.1-1.547,0.205s-0.818,0.258-1.131,0.457
			s-0.564,0.434-0.756,0.703s-0.332,0.648-0.422,1.137s-0.135,1.076-0.135,1.764h11.25c0-0.914-0.098-1.631-0.293-2.15
			s-0.504-0.947-0.926-1.283s-0.965-0.566-1.629-0.691S190.335,31.121,189.398,31.121z M193.148,23.621l-1.5-2.25l-6.75,5.625
			l0.75,1.125L193.148,23.621z"/>
		<linearGradient id="SVGID_15_" gradientUnits="userSpaceOnUse" x1="199.8979" y1="36.1836" x2="213.3979" y2="36.1836">
			<stop  offset="0" style="stop-color:#56D14D"/>
			<stop  offset="1" style="stop-color:#2C452A"/>
		</linearGradient>
		<path fill="url(#SVGID_15_)" stroke="#1D8B43" stroke-miterlimit="10" d="M211.523,34.016c0-0.563-0.041-1.029-0.123-1.4
			s-0.275-0.668-0.58-0.891s-0.756-0.379-1.354-0.469s-1.412-0.135-2.443-0.135c-1.008,0-1.828,0.088-2.461,0.264
			s-1.129,0.424-1.488,0.744s-0.604,0.703-0.732,1.148s-0.193,0.941-0.193,1.488v8.355h-2.25v-13.5h2.25v2.145
			c0.078-0.242,0.223-0.51,0.434-0.803s0.531-0.566,0.961-0.82s0.986-0.467,1.67-0.639s1.537-0.258,2.561-0.258
			c1.172,0,2.125,0.104,2.859,0.311s1.307,0.512,1.717,0.914s0.688,0.9,0.832,1.494s0.217,1.277,0.217,2.051H211.523z"/>
		<linearGradient id="SVGID_16_" gradientUnits="userSpaceOnUse" x1="215.6479" y1="34.1211" x2="217.8979" y2="34.1211">
			<stop  offset="0" style="stop-color:#56D14D"/>
			<stop  offset="1" style="stop-color:#2C452A"/>
		</linearGradient>
		<path fill="url(#SVGID_16_)" stroke="#1D8B43" stroke-miterlimit="10" d="M217.898,27.371h-2.25v-2.25h2.25V27.371z
			 M215.648,29.621h2.25v13.5h-2.25V29.621z"/>
		<linearGradient id="SVGID_17_" gradientUnits="userSpaceOnUse" x1="221.2729" y1="38.4336" x2="237.7729" y2="38.4336">
			<stop  offset="0" style="stop-color:#56D14D"/>
			<stop  offset="1" style="stop-color:#2C452A"/>
		</linearGradient>
		<path fill="url(#SVGID_17_)" stroke="#1D8B43" stroke-miterlimit="10" d="M229.523,29.246c1.063,0,1.953,0.059,2.672,0.176
			s1.307,0.264,1.764,0.439s0.805,0.365,1.043,0.568s0.412,0.391,0.521,0.563v-1.371h2.25v18h-2.25v-6.117
			c-0.109,0.191-0.283,0.396-0.521,0.612c-0.238,0.217-0.586,0.419-1.043,0.606s-1.045,0.344-1.764,0.469s-1.609,0.188-2.672,0.188
			c-1.5,0-2.773-0.112-3.82-0.337c-1.047-0.224-1.898-0.608-2.555-1.151s-1.133-1.275-1.43-2.197s-0.445-2.079-0.445-3.474
			c0-1.371,0.148-2.507,0.445-3.405s0.773-1.611,1.43-2.139s1.508-0.896,2.555-1.109C226.75,29.353,228.023,29.246,229.523,29.246z
			 M229.523,31.121c-0.875,0-1.631,0.023-2.268,0.069s-1.178,0.136-1.623,0.267s-0.807,0.313-1.084,0.545
			c-0.277,0.231-0.492,0.537-0.645,0.915c-0.152,0.379-0.254,0.839-0.305,1.379c-0.051,0.541-0.076,1.183-0.076,1.924
			s0.025,1.387,0.076,1.936c0.051,0.548,0.152,1.02,0.305,1.413c0.152,0.395,0.367,0.715,0.645,0.962s0.639,0.444,1.084,0.591
			c0.445,0.147,0.986,0.248,1.623,0.302s1.393,0.081,2.268,0.081c0.75,0,1.418-0.018,2.004-0.053
			c0.586-0.034,1.102-0.113,1.547-0.236c0.445-0.124,0.822-0.302,1.131-0.533c0.309-0.232,0.561-0.545,0.756-0.939
			c0.195-0.394,0.338-0.881,0.428-1.459c0.09-0.58,0.135-1.279,0.135-2.098c0-0.804-0.045-1.488-0.135-2.052
			s-0.232-1.033-0.428-1.407c-0.195-0.375-0.447-0.67-0.756-0.887s-0.686-0.377-1.131-0.48c-0.445-0.105-0.961-0.17-1.547-0.197
			S230.273,31.121,229.523,31.121z"/>
		<linearGradient id="SVGID_18_" gradientUnits="userSpaceOnUse" x1="240.7729" y1="36.5" x2="256.5347" y2="36.5">
			<stop  offset="0" style="stop-color:#56D14D"/>
			<stop  offset="1" style="stop-color:#2C452A"/>
		</linearGradient>
		<path fill="url(#SVGID_18_)" stroke="#1D8B43" stroke-miterlimit="10" d="M243.023,29.621v7.427c0,0.827,0.063,1.526,0.188,2.095
			s0.375,1.027,0.75,1.375s0.908,0.6,1.596,0.754c0.688,0.155,1.596,0.232,2.723,0.232c1.219,0,2.219-0.089,2.996-0.267
			c0.779-0.179,1.391-0.43,1.836-0.755c0.445-0.324,0.754-0.715,0.922-1.172c0.168-0.456,0.252-0.963,0.252-1.52v-8.17h2.25v13.5
			h-2.25v-2.359c-0.109,0.252-0.293,0.531-0.553,0.838c-0.258,0.305-0.645,0.589-1.16,0.85c-0.516,0.262-1.184,0.481-2,0.66
			c-0.818,0.18-1.832,0.27-3.045,0.27c-1.006,0-1.871-0.061-2.592-0.182c-0.723-0.121-1.336-0.301-1.838-0.539
			c-0.504-0.238-0.908-0.533-1.213-0.885s-0.539-0.76-0.703-1.225c-0.162-0.465-0.271-0.982-0.326-1.553s-0.082-1.195-0.082-1.875
			l0.012-7.5H243.023z"/>
		<linearGradient id="SVGID_19_" gradientUnits="userSpaceOnUse" x1="259.1597" y1="36.3125" x2="274.9097" y2="36.3125">
			<stop  offset="0" style="stop-color:#56D14D"/>
			<stop  offset="1" style="stop-color:#2C452A"/>
		</linearGradient>
		<path fill="url(#SVGID_19_)" stroke="#1D8B43" stroke-miterlimit="10" d="M267.41,43.379c-1.5,0-2.773-0.104-3.82-0.311
			s-1.898-0.564-2.555-1.072s-1.133-1.188-1.43-2.039s-0.445-1.922-0.445-3.211c0-1.477,0.148-2.697,0.445-3.662
			s0.773-1.732,1.43-2.303s1.508-0.969,2.555-1.195s2.32-0.34,3.82-0.34c1.07,0,1.998,0.078,2.783,0.234s1.457,0.383,2.016,0.68
			s1.012,0.656,1.359,1.078s0.621,0.865,0.82,1.33s0.336,1.01,0.41,1.635s0.111,1.285,0.111,1.98l-0.188,0.75H261.41
			c0,1.006,0.102,1.83,0.305,2.474s0.539,1.114,1.008,1.411s1.086,0.486,1.852,0.565c0.766,0.08,1.711,0.12,2.836,0.12
			c1.031,0,1.885-0.027,2.561-0.084c0.676-0.055,1.213-0.16,1.611-0.316c0.398-0.154,0.678-0.371,0.838-0.649
			c0.16-0.277,0.24-0.639,0.24-1.083h2.25c0,0.727-0.127,1.346-0.381,1.857s-0.674,0.926-1.26,1.242s-1.357,0.547-2.314,0.691
			S268.816,43.379,267.41,43.379z M267.41,31.121c-0.75,0-1.42,0.016-2.01,0.047s-1.105,0.1-1.547,0.205s-0.818,0.258-1.131,0.457
			s-0.564,0.434-0.756,0.703s-0.332,0.648-0.422,1.137s-0.135,1.076-0.135,1.764h11.25c0-0.914-0.098-1.631-0.293-2.15
			s-0.504-0.947-0.926-1.283s-0.965-0.566-1.629-0.691S268.347,31.121,267.41,31.121z"/>
		<linearGradient id="SVGID_20_" gradientUnits="userSpaceOnUse" x1="277.9097" y1="36.2539" x2="293.6597" y2="36.2539">
			<stop  offset="0" style="stop-color:#56D14D"/>
			<stop  offset="1" style="stop-color:#2C452A"/>
		</linearGradient>
		<path fill="url(#SVGID_20_)" stroke="#1D8B43" stroke-miterlimit="10" d="M282.984,36.922c-0.805-0.031-1.498-0.096-2.08-0.193
			s-1.066-0.236-1.453-0.416s-0.693-0.42-0.92-0.721s-0.387-0.672-0.48-1.113s-0.141-0.92-0.141-1.436
			c0-0.703,0.148-1.295,0.445-1.775s0.773-0.871,1.43-1.172s1.508-0.518,2.555-0.65s2.32-0.199,3.82-0.199
			c1.484,0,2.709,0.078,3.674,0.234s1.73,0.396,2.297,0.721s0.963,0.732,1.189,1.225s0.34,1.078,0.34,1.758h-2.25
			c0-0.422-0.08-0.766-0.24-1.031s-0.439-0.475-0.838-0.627s-0.936-0.258-1.611-0.316s-1.529-0.088-2.561-0.088
			c-1.125,0-2.07,0.016-2.836,0.047s-1.383,0.109-1.852,0.234s-0.805,0.316-1.008,0.574s-0.305,0.613-0.305,1.066
			c0,0.266,0.018,0.525,0.053,0.779s0.115,0.463,0.24,0.627s0.309,0.289,0.551,0.375s0.572,0.15,0.99,0.193s0.936,0.066,1.553,0.07
			s1.363,0.006,2.238,0.006c1.063,0,1.994,0.023,2.795,0.07s1.494,0.129,2.08,0.246s1.07,0.297,1.453,0.539s0.689,0.506,0.92,0.791
			s0.393,0.621,0.486,1.008s0.141,0.834,0.141,1.342s-0.047,0.963-0.141,1.365s-0.258,0.758-0.492,1.066s-0.553,0.574-0.955,0.797
			s-0.908,0.402-1.518,0.539s-1.338,0.238-2.186,0.305s-1.834,0.1-2.959,0.1c-1.406,0-2.588-0.07-3.545-0.211
			s-1.729-0.365-2.314-0.674s-1.006-0.709-1.26-1.201s-0.381-1.094-0.381-1.805h2.25c0,0.469,0.08,0.85,0.24,1.143
			s0.439,0.521,0.838,0.686s0.936,0.275,1.611,0.334s1.529,0.088,2.561,0.088c0.938,0,1.736-0.021,2.396-0.064
			s1.213-0.111,1.658-0.205s0.797-0.207,1.055-0.34s0.453-0.293,0.586-0.48s0.217-0.396,0.252-0.627s0.053-0.486,0.053-0.768
			c0-0.258-0.018-0.486-0.053-0.686s-0.115-0.398-0.24-0.598s-0.309-0.35-0.551-0.451s-0.572-0.186-0.99-0.252
			s-0.936-0.113-1.553-0.141s-1.363-0.041-2.238-0.041C284.722,36.969,283.789,36.953,282.984,36.922z"/>
	</g>
</g>
</svg>
